<svg width="42" height="39" viewBox="0 0 42 39" fill="none" xmlns="http://www.w3.org/2000/svg">
<path d="M8.00623 7.43437C8.4985 6.97741 9.16605 6.7207 9.86211 6.7207C10.5582 6.7207 11.2257 6.97741 11.718 7.43437L21 16.0534L30.282 7.43437C30.7771 6.99036 31.4401 6.74467 32.1284 6.75023C32.8167 6.75578 33.4751 7.01213 33.9618 7.46406C34.4485 7.91599 34.7245 8.52735 34.7305 9.16646C34.7365 9.80556 34.4719 10.4213 33.9937 10.881L24.7117 19.5L33.9937 28.119C34.4719 28.5787 34.7365 29.1944 34.7305 29.8335C34.7245 30.4726 34.4485 31.084 33.9618 31.5359C33.4751 31.9879 32.8167 32.2442 32.1284 32.2498C31.4401 32.2553 30.7771 32.0096 30.282 31.5656L21 22.9466L11.718 31.5656C11.2229 32.0096 10.5598 32.2553 9.87156 32.2498C9.18329 32.2442 8.52491 31.9879 8.03821 31.5359C7.55152 31.084 7.27545 30.4726 7.26947 29.8335C7.26349 29.1944 7.52807 28.5787 8.00623 28.119L17.2882 19.5L8.00623 10.881C7.51412 10.4239 7.23767 9.80402 7.23767 9.15768C7.23767 8.51135 7.51412 7.89147 8.00623 7.43437V7.43437Z" fill="#EEEEEE"/>
</svg>
